<?xml version="1.0" encoding="utf-8"?>
<!-- Generator: Adobe Illustrator 28.3.0, SVG Export Plug-In . SVG Version: 6.00 Build 0)  -->
<svg version="1.1" xmlns="http://www.w3.org/2000/svg" xmlns:xlink="http://www.w3.org/1999/xlink" x="0px" y="0px"
	 viewBox="0 0 595.28 841.89" style="enable-background:new 0 0 595.28 841.89;" xml:space="preserve">
<style type="text/css">
	.st0{fill:#301330;}
	.st1{display:none;}
	.st2{display:inline;fill:#D5D9DC;}
	.st3{fill:#AFB3B6;}
	.st4{fill:#4F194F;}
	.st5{fill:#5A2965;}
	.st6{fill:#C35F94;}
	.st7{fill:#9E3972;}
	.st8{fill:#964590;}
	.st9{fill:#77256E;}
	.st10{fill:#AC85A7;}
	.st11{fill:#76174F;}
	.st12{fill:#6E184A;}
	.st13{fill:#5C0035;}
	.st14{fill:#E7B322;}
	.st15{fill:#3A1218;}
	.st16{fill:#783988;}
	.st17{fill:#B9842C;}
	.st18{fill:#CCA332;}
	.st19{fill:#E5B045;}
	.st20{fill:#8B4F39;}
	.st21{fill:#B87530;}
	.st22{fill:#BAA230;}
	.st23{fill:#736D2C;}
	.st24{fill:#E4BFDB;}
	.st25{fill:#A76E29;}
	.st26{fill:#E5A028;}
	.st27{fill:#D3A14A;}
	.st28{fill:#A46A99;}
	.st29{fill:#53273B;}
</style>
<g id="Layer_2">
	<polyline class="st0" points="94.69,492.9 94.69,432.65 113.36,432.65 97.98,493.55 	"/>
	<g>
		<g id="Background_00000081622262326857051500000003874936947575842192_" class="st1">
			<path class="st2" d="M503.22,459.31c-2.45-2.74-4.74-5.73-6.9-8.67c-0.35-0.48,0.56-1.18,0.4-1.54c-0.5-1.17-2.21-0.86-2.44-1.15
				c-6.28-8.19-7.8-11.1-16.85-18.3c-2.17-1.72-19.85-13.97-21.11-14.25c-1.13-0.25-1.34,0.92-2.03,0.77
				c-0.21-0.04-1.36-2.2-2.84-3.08c-2.42-1.44-23.31-10.98-25.97-11.93c-1.34-0.47-4.25,0.02-5.27-0.38
				c-0.8-0.31-0.44-1.69-1.22-1.93c-2.72-0.84-14.46-3.27-17.85-3.84c-0.1-0.02-1.16-1.09-1.62-1.16c-0.67-0.1-3.46,0.79-3.65,0.77
				c-7.92-0.68-5.24-2.58-6.49-3.08c-1.58-0.63-5.78,0.79-6.08,0.78c-9.27-0.35-18.62-2.72-27.99-2.29c1.24-4.17-1.3-0.51-2.03-0.38
				c-0.44,0.07-7.22-0.67-8.93-0.76c-0.42-0.02-0.65-1.13-0.81-1.16c-1.91-0.35-2.31,0.78-2.43,0.77c-4.5-0.18-20.05,0.16-21.1,0.02
				c-0.59-0.08-3.9-2.64-7.3-1.92c-0.19,0.04-1.42,1.59-3.24,1.93c-5.97,1.12-7.48-2.23-8.12-2.31c-0.31-0.04-3.96,1.47-6.08,1.55
				c-4.51,0.17-9.22-0.09-13.79,0.01c-0.13,0-0.37-0.85-2.43-0.77c-0.46,0.02-3.55,2.31-8.92,1.16c-0.71-0.15-0.51-1.39-0.81-1.54
				c-1.24-0.61-4.78,1.83-5.68,1.93c-1.15,0.13-18.65-0.41-23.12-0.37c-0.19,0-3.14-0.86-3.65-0.77c-1.85,0.33-3.48,2.61-6.08,2.7
				c-2.34,0.09-5.23-2.04-7.71-1.54c-1.13,0.23-2.29,3.21-11.36,3.48c-0.38,0.01-0.69-1.16-0.81-1.16
				c-2.58,0.01-6.06,2.24-6.49,2.32c-2.79,0.53-5.77-0.38-7.71,0.01c-1.56,0.31-18.73,5.05-21.09,5.8
				c-20.13,6.45-37.57,17.06-55.15,28.19c-5.61-3.01-2.95,0.69-3.04,0.97c-0.26,0.74-5.45,3.49-6.69,4.44
				c-8.39,6.43-15.94,13.39-22.9,21.23c0.01-28.4-0.08-56.8-0.07-85.21c207.71-0.18,207.71-0.18,415.42-0.37
				C503.19,398.65,503.16,428.98,503.22,459.31z"/>
			<path class="st2" d="M503.31,570.74c-0.01,28.15,0.07,56.29,0.07,84.44c-207.71,0.18-207.71,0.18-415.42,0.37
				c-0.05-26.47-0.01-52.95-0.07-79.42c10.91,11.29,21.12,18.2,33.9,26.96c3.47,2.38,2.13,4.74,8.12,3.08
				c9.24,11.19,8.74,5.86,11.36,6.16c1.13,0.13,8.36,7.17,8.93,7.32c1.18,0.3,3.57-0.95,4.87-0.78c1.18,0.16,13.23,6.03,16.23,7.31
				c7.3,0.76,7.3,0.76,14.61,1.53c3.71,0.83,7.21,3.69,7.71,3.85c2.39,0.74,12.22-0.07,15.82,2.68c6.55-2.56,13.44,3.54,19.88,1.91
				c0.72-0.18,1.73-1.92,2.43-1.93c0.63-0.01,5.61,4.53,7.71,3.46c0.85-0.43,0.35-1.44,1.22-1.93c5.84-3.27,6.89,1.22,9.33,1.92
				c6.87,1.97,12.59-6.4,11.97,0.57c10,2.02,9.05-1.15,9.53-1.36c4.55-1.92,8,1.58,8.93,1.53c1.71-0.09,1.53-2.81,5.27-2.32
				c1.26,0.17,3.83,1.9,4.06,1.92c0.19,0.02,3.45-0.78,3.65-0.77c9.89,0.49,19.73-0.03,29.62,0.36c2.94-4.9,2.85-0.8,3.04-0.58
				c0.51,0.57,14.97,0.6,15.62,0.18c0.57-0.37-0.34-2.06,0.81-1.93c-0.31,1.77,7.12,2.85,7.71,2.69c2.9-0.77,1.44-1.61,2.03-1.93
				c0.51-0.28,10.54-0.16,11.76-0.01c0.65,0.08,1.9,1.54,2.03,1.54c0.65,0.02,2.13-5.18,9.33-3.09c1.56,0.45,3.34,2.23,3.65,2.31
				c2.73,0.72,2.96-2.17,3.65-2.7c3.9-3.02,9.57-0.01,11.76-0.01c2.16,0,9.53-4.36,16.23-2.33c1.05-4.78,7.09-2.87,10.95-3.87
				c0.92-0.24,16.04-5.84,17.84-6.57c0.75-0.3,0.37-1.61,1.62-1.93c0.95-0.24,4.02,1.42,4.87,1.15c0.1-0.03,0.6-1.35,1.22-1.54
				c4.83-1.49,7.69-1.26,11.56-4.83c1.48-1.37,2.07-3.52,3.85-4.82c0.89-0.65,3.88-1.42,4.06-1.55c5.82-4.26,11.19-10.08,18.85-11
				c-4.48-3.76,3.99-7.53,4.46-8.1c0.27-0.33-0.43-0.74-0.41-0.77C494.52,581.64,499.43,572.44,503.31,570.74z"/>
			<path class="st2" d="M149,404.68c0.52,0.71-2.35,1.9-1.42-0.19C148.29,404.59,148.29,404.59,149,404.68z"/>
		</g>
		<g>
			<g>
				<g>
					<path class="st3" d="M245.52,396.63c0.03,0.04-0.41,0.63-0.81,0.39C243.74,396.42,245.16,396.14,245.52,396.63z"/>
					<path class="st3" d="M94.67,462.69c0.16,0.39-0.54,0.97-0.61,0.96C93.39,463.59,94.43,462.09,94.67,462.69z"/>
					<path class="st3" d="M264.8,633.72c-0.1,0.1-0.1,0.1-0.2,0.19c-0.1,0.1-0.1,0.1-0.2,0.19c-0.1,0.1-0.1,0.1-0.2,0.19
						c-0.1-0.1-0.1-0.1-0.2-0.19c0-0.19,0-0.19,0-0.39c0.1-0.1,0.1-0.1,0.2-0.19c0.2,0,0.2,0,0.41,0
						C264.7,633.63,264.7,633.63,264.8,633.72z"/>
				</g>
				<g>
					<path class="st0" d="M359.61,497.73c-7.39,1.11-1.12-2.48,2.03-3.86c0.3-0.13,2.92-0.2,6.29-1.93
						c2.25-1.16,11.19-8.08,13.99-10.42c2.87,2.61,2.89-0.23,3.85-0.39c1.22-0.2,9.56,5.89-0.61,3.08
						c-1.17-0.38-2.16-1.22-2.64-1.15c-0.62,0.08-8.02,6.9-9.53,7.72c-1.83,1.38,0.3,0.39,0.41,0.39
						c24.19-2.24,38.75,5.82,40.78,5.36c1.03-0.23,3.05-9.07,15.61-12.74c6.38,6.62-6.88,16.82-2.63,3.86
						c-6.22,4.66-5.82,10.42-11.76,9.26c-0.1,0.87-0.1,0.87-0.2,1.74c10.46,2.73,9.75-1.5,10.14-1.94c2.82-3.17,3.91,0.62,5.27-0.2
						c0.89,4.29,1.57,1.59,7.3-0.39c-2.49,3.88-6.56,4.69-10.95,5.21c3,1.81,8.4,3.95,10.96,5.97c2.67,2.1,4.22,4.98,6.5,7.71
						c-8.06-4.22-15.02-9.28-23.74-12.7C400.76,494.49,380.25,490.01,359.61,497.73z"/>
					<path class="st0" d="M188.01,502.13c-1.26,0.04-2.25-0.33-2.03,0.77c-2.61-1.31-4.05-0.35-6.69,0.39
						c-1.19,0.33-22.02,7.95-23.12,8.5c-1.38,0.7-0.91,1.03-1.01,1.16c-1.27,1.62,0.13,0.36,0,0.96c-0.65,2.97-6.62,1.62-13.18,0.59
						c-0.79-0.13-1.13-1.14-1.22-1.16c-0.66-0.11-1.07,0.8-1.22,0.77c-0.83-0.16-1.13-1.14-1.22-1.16c-0.1-0.02-0.72,0.79-0.81,0.77
						c-15.05-3.37-31.3-11.18-42.41-21.55c5.67-5.92,6.54-0.64,12.38,3.46c14.28,10.04,45.13,23.36,58.63,6.5
						c0.81,0.19,0.81,0.19,1.62,0.38c-0.6,0.78-2.77,3.28-1.42,3.09c8.62-3,8.62-3,17.24-5.99c0-0.8-6.24-0.5-10.15-3.65
						c1.41-1.55,1.33,0.69,2.23,0.77c0.36,0.03,2.69-3.15,6.09,0.77c0.31-6.17,8.99-4.21,7.3-2.71c-3.14,1.64-3.14,1.64-6.29,3.28
						C185.32,501.4,182.77,501.64,188.01,502.13z"/>
					<path class="st4" d="M253.39,569.93c-1.63-0.35-3.05-6.39-3.45-6.55c-0.72-0.29-4.27,5.34-14.6,4.25
						c-20.53-2.16-7.49-25.7-8.35-41.63c1.48-2.78-1.3-7.38,1.21-6.17c4.01,14.08-5.19,30.78-1.99,39.52
						c3.33,9.12,21.5,6.64,23.13,2.49c-1.56-8.83-3.26-14.49,2.23-2.32c1.29-2.01,0.47,1.16,1.22,1.54
						c2.62,1.33,2.97-2.33,3.05,8.67C254.6,569.83,254.6,569.83,253.39,569.93z"/>
					<g>
						<path class="st5" d="M178.29,526.04c1.31-0.58,2.63-0.93,4.06-1.16c18.8,0.8,34.14,22.38,36.34,38.91
							c-10.17-3.76-15.55-0.75-20.9-10.2c0.1-0.76,13.88,1.32,15.62,2.49c0.3-0.29,0.3-0.29,0.61-0.58
							c-10.62-7.13-18.97-1.54-21.31-10.2c4.78-0.09,9.81,0.14,14.2,2.3c1.7-0.62-6.38-4.02-7.31-4.23
							c-8.51-1.94-8.35,1.88-13.19-5.96c0.57-1.93,13.63-0.71,15.82-0.01c-6.76-5.54-16.46-2.51-17.65-2.88
							C184.07,534.36,179.13,527.17,178.29,526.04z"/>
						<path class="st5" d="M173.02,528.36c0.8-0.32,1.47-0.94,2.43-0.77c8.66,1.28-4.83,13.45-2.61,25.06
							c-6.58-5.41-7.86-18.71,0.59-23.71C173.23,528.65,173.23,528.65,173.02,528.36z"/>
					</g>
					<path class="st0" d="M306.91,545.59c-0.82-1.07,0.08-1.77-1.02-2.7c-0.66-0.56-16.15-4.37-17.04-4.23
						c-1.37,0.22-12.36,8.35-23.73,0.41c-11.58-12.61,5.54,2.05,7.51,2.69c3.4,1.1,10.6-0.85,13.99-2.52
						c-2.98-0.09-5.3-0.69-7.71-2.31c-1.15-3.49,7.32-0.15,8.72-0.59c0.79-0.25,2.18-4.15,4.66-2.7c-0.88,1.83-1.99,1.79-0.2,2.7
						c8.42,1.73,8.42,1.73,16.84,3.46C308.19,541.2,307.39,543.96,306.91,545.59z"/>
					<path class="st4" d="M259.47,566.45c-1.44-0.82,1.54-4.01,1.21-4.43c-0.72-0.95-4.58,2.04-1.23-9.64
						c0.99-0.85,1.37,4.72,2.03,0c1.73-12.48-3.67-17.97,2.83-9.83C264.78,551.87,265.73,558.62,259.47,566.45z"/>
					<g>
						<path class="st0" d="M430.61,496.51c-1.36,0.82-2.45-2.98-5.27,0.2c-0.39,0.44,0.32,4.67-10.14,1.94
							c0.1-0.87,0.1-0.87,0.2-1.74c5.94,1.15,5.54-4.6,11.76-9.26c-4.25,12.96,9.01,2.76,2.63-3.86c0.25-0.07,1.3-1.6,4.87-0.39
							c0.12,2.78-0.27,5.47-1.62,7.91C441.34,493.66,429.38,490.62,430.61,496.51z"/>
						<path class="st4" d="M437.91,496.12c-5.73,1.98-6.41,4.68-7.3,0.39c-1.22-5.89,10.73-2.85,2.43-5.21
							c1.35-2.44,1.73-5.12,1.62-7.91C437.57,484.39,441.65,490.29,437.91,496.12z"/>
					</g>
					<g>
						<path class="st4" d="M217.63,510.2c-0.13,0.02-0.27-0.02-0.41,0c-1.46,0.22-9.03,0.32-10.34,0.01
							c-0.36-0.09-5.81-2.96-6.49-3.46c-0.6-0.44-4.38-4.09-4.26-4.43c11.13-2.88,9.18,0.32,14.81,3.65
							C214.72,508.2,219.12,507.88,217.63,510.2z"/>
						<path class="st4" d="M224.1,484.74c2.2,0.31,4.33,0.66,6.49,1.15c-0.48,2.99-2.48,5.8-3.44,8.87
							C206.43,497.84,224.36,495.92,224.1,484.74z"/>
						<path class="st4" d="M240.34,501.31c-0.51-0.77-0.51-0.77-1.02-1.54c-15.26-6.76,2.79,0.91,6.28-8.49
							C251.77,494.94,250.9,495.33,240.34,501.31z"/>
						<path class="st4" d="M232.23,505.17c-2.34-2.01-13.81-5.64-11.57-6.93c7.81-2.62,9.28,0.61,16.43,4.61
							C235.43,503.68,233.97,504.44,232.23,505.17z"/>
						<path class="st4" d="M198.97,509.44c-10.75-2.77-12.33-6.21-12.99-6.54c-0.22-1.1,0.77-0.74,2.03-0.77
							c2.23,0.21,4.38-0.75,5.48-0.39c0.76,0.25,2.58,4.9,7.11,7.13C199.78,509.15,199.78,509.15,198.97,509.44z"/>
						<path class="st4" d="M235.87,487.43c2.2,0.67,3.99,1.42,6.09,2.31C244.71,493.07,223.81,498.91,235.87,487.43z"/>
					</g>
					<path class="st4" d="M348.23,469.6c-1.72,2.51-1.72,2.51-3.44,5.02c-2.14-5.97-2.14-5.97-4.27-11.95
						c2.6,0.45,4.56,1.9,6.09,3.85C347.42,467.55,347.68,468.47,348.23,469.6z"/>
					<path class="st0" d="M261.87,531.36c2.38-0.9,4.21-2.96,11.36-3.87C277.79,531.45,269.48,533.04,261.87,531.36z"/>
					<g>
						<path class="st4" d="M298.84,594.95c-1.81-1-3.56-1.93-5.28-3.08c1.01-0.83-3.94-3.47-5.69-6.36
							c-2.49-4.12-5.95-18.11-3.87-22.94c11.54,9.42,6.6,5.67,5.89,14.07c-0.72,8.58,3.5,12.53,4.07,11.56
							c-0.97-2.31-1.44-16.42,1-16.39c0.58,1.13,6.19,5.19,6.29,5.59c0.16,0.61-2.07,9.39-2.42,11.18
							c-0.02,0.08-1.25,0.63-1.22,1.16C297.71,591.03,301.4,593.72,298.84,594.95z"/>
						<path class="st4" d="M323.18,587.6c-5.21-0.58-13.77-1.12-15.22-7.31c23.51,3.36-8.4-0.93-8.93-8.47
							c5.7,1.12,14.57,0.53,18.46,4.61C319.98,579.04,321.7,584.3,323.18,587.6z"/>
						<path class="st4" d="M313.83,571.03c-8.73-3.05-16.97-1.12-18.46-1.53c-0.39-0.11-4.89-4.57-5.89-5.2
							c4.59-0.61,15.18-1.93,18.66-0.21C310.45,565.24,312.38,569.05,313.83,571.03z"/>
						<path class="st4" d="M301.65,558.32c1.45,1.01,2.73,1.93,4.06,3.08c-13.48-3.68-19.63,4.32-23.13-3.26
							c0.1-0.67,0.1-0.67,0.2-1.35C289.66,558.08,296.41,555.44,301.65,558.32z"/>
						<path class="st4" d="M286.64,551.39c4.27,0.77,4.58,1.31,7.71,2.69c-6.79,0.78-6.79,0.78-13.59,1.55
							C275.04,549.83,278.67,552.98,286.64,551.39z"/>
						<path class="st4" d="M325.21,592.61c-1.92-0.21-6.21,0.3-7.1,0.01c-0.36-0.12-2.69-3.83-3.86-4.43
							c0.19-1.27,8.14,0.71,9.33,0.57C324.16,590.08,324.69,591.25,325.21,592.61z"/>
						<path class="st4" d="M329.28,604.56c-6.15-4.5-13.06-13.08-2.85-8.48C327.39,598.89,329.13,601.5,329.28,604.56z"/>
					</g>
					<g>
						<path class="st6" d="M375.39,453.77c-10.99,9.36-18.81,21.2-25.13,21.61c0.04-0.25-0.04-0.52,0-0.77
							c0.01-0.04,0.76,0.13,0.81-0.19c0.51-3.49,0.22-7.35,0.8-10.41c0.39-2.04,4.21-18.36,6.48-11.38
							c0.33,1.03-0.78,2.81,1.02,1.93c0.69-0.72-0.67-9.51,4.25-6.17c-1.62,1.92-4.21,3.7-2.84,4.63c1.03,3.64,5.76-1.89,6.89-3.86
							c0.71,0.1,1.6,0,2.03,0.77c-7.14,8.71-2.43,5.08,6.09,3.27C375.6,453.48,375.6,453.48,375.39,453.77z"/>
						<path class="st6" d="M349.85,473.84c-0.42-1.55-0.78-1.46-0.81-1.54c-0.05-0.13,0-1.03-0.81-2.7
							c-0.55-1.13-0.81-2.05-1.63-3.08c-0.65-8.51-0.54-11.18,1.61-19.28c1.8-1.17,4.77-1.56,6.9-1.16c0.13,0.02,1.77,1.4,2.03,1.54
							C350.24,454.47,350.87,464.99,349.85,473.84z"/>
						<path class="st5" d="M375.39,453.77c0.2-0.29,0.2-0.29,0.41-0.58c-8.52,1.81-13.23,5.43-6.09-3.27
							c2.76-3.36,9.66-9.65,13.79-5.6C384.24,449.41,378.49,451.13,375.39,453.77z"/>
						<path class="st7" d="M358.35,452.62c-2.27-6.98-6.09,9.34-6.48,11.38c-0.59,3.07-0.29,6.92-0.8,10.41
							c-0.05,0.32-0.81,0.15-0.81,0.19c-0.61,0.02-0.32-0.47-0.41-0.77c1.02-8.85,0.39-19.37,7.28-26.22
							c0.06,0.03,0.6-0.05,1.22,0.38C358.32,449.04,360.23,452.7,358.35,452.62z"/>
						<path class="st8" d="M355.91,445.3c-2.69-0.46-4.1-2.42-6.09-3.85C354.27,433.68,360.59,440.97,355.91,445.3z"/>
						<path class="st6" d="M363.62,448.38c-4.92-3.34-3.57,5.46-4.25,6.17c-1.79,0.88-0.68-0.9-1.02-1.93
							c1.87,0.07-0.04-3.58,0-4.63c0-0.13-0.01-0.26,0-0.39c2.54-1.65,4.61-4.17,8.11-3.86
							C366.83,447.47,363.81,448.16,363.62,448.38z"/>
						<path class="st7" d="M358.35,447.61c0.62-7.43,7.58-9.2,8.11-3.86C362.96,443.45,360.89,445.96,358.35,447.61z"/>
						<path class="st9" d="M355.1,446.07c-2.13-0.39-5.09-0.01-6.9,1.16c0.51-1.92-0.1-2.77,1.62-5.78c1.99,1.43,3.4,3.39,6.09,3.85
							C355.87,445.34,355.72,446.01,355.1,446.07z"/>
						<path class="st9" d="M360.79,453.01c1.61-2.75,3.76-4.3,6.89-3.86C366.55,451.11,361.81,456.65,360.79,453.01z"/>
					</g>
					<path class="st10" d="M372.99,490.78c0.2,0.19,0.2,0.19,0.41,0.39C373.29,491.18,371.17,492.17,372.99,490.78z"/>
					<g>
						<path class="st0" d="M261.87,531.36c7.61,1.68,15.92,0.08,11.36-3.87c7.3-0.93,13.32,0.2,20.49,1.14
							c2.16,0.65-0.41,2.94-1.42,5.01c-2.48-1.44-3.87,2.46-4.66,2.7c-1.4,0.44-9.88-2.91-8.72,0.59c2.41,1.62,4.73,2.22,7.71,2.31
							c-3.39,1.67-10.6,3.62-13.99,2.52c-1.97-0.64-19.09-15.3-7.51-2.69c0.92,1.81,10.35,11.77,11.17,11.94
							c0.51,0.11,1.97-1.13,10.35,0.38c-7.96,1.6-11.59-1.56-5.88,4.25c6.79-0.78,6.79-0.78,13.59-1.55
							c2.85,1.26,4.78,2.48,7.31,4.23c-5.24-2.88-11.99-0.23-18.87-1.53c-0.1,0.67-0.1,0.67-0.2,1.35c3.5,7.58,9.65-0.42,23.13,3.26
							c0.81,0.7,2.41,1.55,2.44,2.7c-3.48-1.72-14.07-0.4-18.66,0.21c0.99,0.63,5.5,5.09,5.89,5.2c1.49,0.41,9.73-1.52,18.46,1.53
							c1.27,1.72,3.1,3.23,3.66,5.39c-3.89-4.08-12.76-3.49-18.46-4.61c0.53,7.54,32.45,11.83,8.93,8.47
							c1.45,6.19,10.01,6.73,15.22,7.31c0.26,0.59,0.29,0.89,0.41,1.16c-1.19,0.14-9.14-1.84-9.33-0.57c1.17,0.6,3.5,4.31,3.86,4.43
							c0.89,0.29,5.18-0.21,7.1-0.01c0.46,1.2,0.81,2.27,1.22,3.47c-10.21-4.6-3.31,3.98,2.85,8.48c0.01,0.15,1.18,1.73-1.22,2.31
							c-0.09-1.39-0.39,0.87-3.65-2.12c-2.55-2.33-6.92-9.15-9.54-12.14c-5.63,11.27,3.69,6.26,9.14,13.49
							c-4.76-1.69-20.61-8.65-25.16-11.16c2.56-1.23-1.13-3.92-1.22-5.2c-0.04-0.53,1.2-1.08,1.22-1.16
							c0.36-1.8,2.58-10.57,2.42-11.18c-0.1-0.4-5.71-4.45-6.29-5.58c-2.44-0.04-1.97,14.08-1,16.39
							c-0.57,0.97-4.79-2.98-4.07-11.56c0.71-8.39,5.65-4.65-5.89-14.07c-2.08,4.83,1.38,18.82,3.87,22.94
							c1.74,2.88,6.7,5.53,5.69,6.36c-13.03-8.73-24.11-21.19-21.94-37.19c0.25-1.87,1.63-2.91,1.62-3.09
							c-0.03-0.62-5.35-4.57-8.93-9.05c-6.5-8.14-1.11-2.64-2.83,9.83c-0.65,4.73-1.03-0.84-2.03,0c-3.35,11.68,0.5,8.69,1.23,9.64
							c0.33,0.43-2.66,3.62-1.21,4.43c-1.28,1.6-4.03,5.94-6.08,3.48c1.22-0.1,1.22-0.1,2.43-0.19c-0.08-11-0.43-7.34-3.05-8.67
							c-0.75-0.38,0.07-3.55-1.22-1.54c-5.49-12.17-3.79-6.51-2.23,2.32c-0.07-0.19-0.16-0.47-0.28-0.81
							c-0.8-2.45-4.61-14.15,0.23-22.44c2.49-4.27,5.29-4.11,5.29-6.25c0-1.85-16.35-13.33-26.38-12.51
							c-2.51-1.21,0.27,3.39-1.21,6.17c-0.06-1.04-0.21-6.16-1.02-6.55c-17.32-0.27-34.61,0.63-51.93,0.43
							c-0.01,1.4,2.63,3.96,4.27,6.17c0.84,1.13,5.78,8.32,6.3,8.48c1.19,0.37,10.89-2.67,17.65,2.88
							c-2.19-0.7-15.26-1.92-15.82,0.01c4.84,7.85,4.68,4.03,13.19,5.96c0.93,0.21,9,3.62,7.31,4.23c-4.39-2.16-9.42-2.39-14.2-2.3
							c2.34,8.66,10.69,3.07,21.31,10.2c-0.3,0.29-0.3,0.29-0.61,0.58c-1.74-1.17-15.52-3.26-15.62-2.49
							c5.35,9.45,10.73,6.44,20.9,10.2c-2.2-16.53-17.55-38.11-36.34-38.91c11.35-1.84,23.73,8.51,29.22,17.13
							c7.3,11.45,10.99,29.69,11.19,42.98c-12.51-4.3-29.57-9.84-39.77-17.7c-15.27-11.76-23.25-33.65-9.97-38.93
							c0.2,0.29,0.2,0.29,0.41,0.58c-8.45,5-7.17,18.3-0.59,23.71c-2.21-11.61,11.28-23.78,2.61-25.06c1.19-0.53-6.15-7.94-6.7-8.09
							c-3.92-1.08-50.19,2.64-74.47-24.8c0.4-1.25,0.4-1.25,0.81-2.51c11.11,10.37,27.36,18.19,42.41,21.55
							c0.1,0.02,0.71-0.79,0.81-0.77c0.08,0.02,0.38,1,1.22,1.16c0.14,0.03,0.56-0.89,1.22-0.77c0.08,0.01,0.42,1.03,1.22,1.16
							c6.56,1.03,12.54,2.38,13.18-0.59c0.13-0.6-1.27,0.66,0-0.96c74.14,0.13,74.14,0.13,148.28,0.26
							c20.59-0.56,28.22-9.49,39.53-24.13c-13.17-6.04-10.18-16.2-5.5-26.79c1.04-0.07,2.04,0.21,3.04,0.38
							c2.14,5.97,2.14,5.97,4.27,11.95c1.72-2.51,1.72-2.51,3.44-5.02c0.81,1.67,0.77,2.57,0.81,2.7
							c-8.86,12.57-2.89,12.99,0.41,4.05c0.11-0.3,0.54-0.19,0.81-0.19c-0.48,2.73-1.4,6.57-0.6,6.17
							c4.4-3.92,6.71-7.68,11.96-10.81c0.8,8.65,0.02,10.88-2.63,2.7c-5.02,2.54-0.26,11.82,1.63,10.41
							c0.11-6.1,1.17-2.91,1.42-3.28c0.97-1.44,3.98-10.6,7.7-9.65c-2.23,4.05-2.23,4.05-4.46,8.1c5.93-1.65,5.91-2.8,6.48-8.3
							c1.73,9.95-2.3,16.23-10.12,22.37c-3.15,1.37-9.42,4.97-2.03,3.86c-10.03,3.75-4.58,1.92,3.45,4.62
							c6.15,2.07,11.89,5.28,18.26,6.92c17.63,4.54,35.73,2.31,38.95,3.44c4.22,1.47,1.44,5.23-1.21,5.78
							c-4.14,0.87-72.94-0.06-84.79,0.85c7.11,6.74,7.11,6.74,14.21,13.48c-3.49-1.85-17.44-13.4-19.49-13.86
							c-4.26-0.96-74.6,1.72-87.63,0.08c2.38,2.08,5.6,3.09,8.12,5.01C256.94,529.7,255.82,533.66,261.87,531.36z"/>
						<g>
							<path class="st11" d="M383.97,512.94c-31.03,0.03-31.03,0.03-62.07,0.05c3.92-1.44,25.91-10.46,27.37-10.63
								C355.93,501.6,376.51,510.36,383.97,512.94z"/>
							<path class="st12" d="M353.11,481.74c-4.48,9.76-1.38,15.76-1.61,16.58c-0.35,1.25-18.03,6.96-20.48,8.31
								C339.2,499.01,343.81,488.17,353.11,481.74z"/>
							<g>
								<path class="st5" d="M328.06,606.87c-0.71,1.07-2.93-0.37-4.06-0.77c-5.45-7.22-14.77-2.22-9.14-13.49
									c2.62,2.99,6.99,9.8,9.54,12.14C327.68,607.74,327.97,605.49,328.06,606.87z"/>
								<path class="st5" d="M311.01,588.96c0.17,0.86-1.49,8.37-1.82,8.68c-1.23,0.62-7.23-2.45-7.51-2.89
									c-1.72-2.71,1.91-11.21,2.22-14.85C304.94,581.21,310.9,588.4,311.01,588.96z"/>
								<path class="st4" d="M282.6,578.19c1.1,5.84-6.28-8.38-6.91-10.4c-1.27-4.12-2.38-10.83-0.62-14.84
									c9.13,8.08,4.84,9.64,5.49,18.31C280.98,576.75,282.53,577.82,282.6,578.19z"/>
							</g>
							<path class="st0" d="M258.64,549.29c-1.58,7.57-6.91,6.75-9.33,0.01c6.95-10.77,3.16,1.5,5.48,2.5
								C257.31,551.79,257,548.26,258.64,549.29z"/>
							<g>
								<path class="st4" d="M350.26,475.38c-0.04,0.25,0.04,0.53,0,0.77c-0.27,0-0.7-0.11-0.81,0.19c-3.3,8.95-9.27,8.52-0.41-4.05
									c0.03,0.08,0.39-0.01,0.81,1.54c0.08,0.3-0.2,0.79,0.41,0.77C350.22,474.86,350.3,475.13,350.26,475.38z"/>
								<path class="st0" d="M342.96,475.58c0.01,0.37-1.17,4.46-1.42,4.44c-0.79-5.6-1.12,2.39-5.48-0.19
									c-0.99-2.04,3.79-4.08,4.66-8.29C341.72,471.27,342.95,475.24,342.96,475.58z"/>
							</g>
							<path class="st0" d="M284.59,531.15c0.71,0.89-6.19,1.25-10.14,1.94C274.5,528.48,284.53,529.48,284.59,531.15z"/>
							<g>
								<path class="st5" d="M188.45,545.69c1.98,5.25,2.72,11.47,3.67,16.96c0.83,4.78,2.52,9.47,0.62,9.25
									c-7.35-4.3-13.96-9.55-18.88-16.37c0.95-4.39,1.04-9.19,2.42-13.5c0.37-1.14,2.44-4.89,3.04-6.75
									c7.37,9.15,3.87,15.4,4.69,22.94c1.4,12.97,2.54-5.6,2.42-15.42C186.93,541.5,188.33,545.36,188.45,545.69z"/>
								<path class="st5" d="M201.86,566.31c0.38,2.67-0.27,7.02,0.01,10.02c-0.15,0.27-5.52-2.44-5.68-2.69
									c-2.2-3.43-0.95-14.19-0.63-19.08C197.97,557.67,201.33,562.53,201.86,566.31z"/>
								<path class="st5" d="M220.53,572.46c-0.47,5.53-13.26-5.6-15.02-8.85c0.2-1.39,13.53,2.73,14,3.26
									C219.7,567.09,220.55,572.18,220.53,572.46z"/>
								<path class="st5" d="M209.98,577.87c0.36,2.59-0.63,1.53-4.06,0C203.47,562.75,205.85,565.92,209.98,577.87z"/>
								<path class="st5" d="M192.12,562.65c-0.95-5.49-1.69-11.71-3.67-16.96C194.2,549.96,192.58,556.42,192.12,562.65z"/>
								<path class="st5" d="M221.75,579.78c0.01,4.4-5.31-3.34-9.74-7.32c0.51-0.29,0.51-0.29,1.01-0.58
									C215.27,575.2,221.73,575.1,221.75,579.78z"/>
								<path class="st4" d="M218.51,582.49c0.1,0.98-11.46-2.8-6.29-5.2C215.36,579.89,215.36,579.89,218.51,582.49z"/>
							</g>
							<g>
								<path class="st4" d="M371.76,471.51c-0.58,5.49-0.55,6.64-6.48,8.3c2.23-4.05,2.23-4.05,4.46-8.1
									c-3.72-0.95-6.73,8.21-7.7,9.65c-0.25,0.36-1.3-2.82-1.42,3.28c-1.89,1.41-6.66-7.86-1.63-10.41
									c2.65,8.17,3.44,5.95,2.63-2.7C372.59,464.98,371.24,468.51,371.76,471.51z"/>
								<path class="st4" d="M370.95,478.25c-0.26,3.44-3.4,7.27-7.09,7.52C362.3,484.86,369.15,477.88,370.95,478.25z"/>
								<path class="st0" d="M359.6,487.13c0.03,0.56-1.4,3.87-2.23,3.66C354.94,485.94,359.37,483.11,359.6,487.13z"/>
							</g>
						</g>
					</g>
					<path class="st13" d="M167.73,502.53c1.38-1.81,4.06-4.78,5.67-6.56c3.9,3.16,10.14,2.85,10.15,3.65c-8.62,3-8.62,3-17.24,5.99
						C164.95,505.81,167.13,503.31,167.73,502.53z"/>
					<g>
						<path class="st5" d="M226.9,443.1c-6.89,5.4-6.89,5.4-13.78,10.81c0.95-4,4.43-13.81,4.04-14.46
							c-3.31,2.42-3.81,6.51-6.48,10.22c-2.38,3.29-5.83,6.63-9.32,8.88c0.02-2.42-0.05-4.74,0.4-7.13
							c0.82-4.38,4.29-11.04,2.83-12.15c14.56-3.91,28.09-2.5,42.6,0.73c1.77,1.56-4.03,3.26-7.5,5.4
							c-0.21-2.51-0.21-2.51-0.41-5.01c-3.33,7.52-6.34,7.58-13.38,10.81c-2.55-0.29,5.88-10.72,4.45-11.96
							C228.63,441.17,228.63,441.17,226.9,443.1z"/>
						<path class="st0" d="M196.11,487.08c-1.99,0.63-5.43,1-7.91,2.32c2.98-7.24-7.17,5.72-6.69,0.2c0.13-1.52,4.25-7.42-3.04-0.96
							c-4.7-4.67,11.46-14.69,12.56-14.66c0.43,0.01,2.09,1.87,2.23,1.93c-3.85,2.61-3.85,2.61-7.7,5.21c4.77,2.6,4.77,2.6,9.54,5.2
							c15.58-5.36,32.13-14.04,43.99-26.45c0.4-1.08,0.6-1.12-1.22-0.96c0-0.19,0-0.19,0-0.39c4.92-0.47,5.33-5.38,7.7-8.87
							c0.81,0,0.81,0,1.62,0C239.28,467.19,214.5,481.3,196.11,487.08z"/>
						<g>
							<path class="st4" d="M175.82,476.69c-2.4-1.29-2,2.51-4.66,4.63c-3.13-0.66,3.89-19.97-3.46-8.48
								c0.26-3.25-0.29-9.76-2.24-4.62c-2.29,0.57-1.3-6.96-1.43-8.48C170.29,461.63,175.28,470.84,175.82,476.69z"/>
							<path class="st0" d="M167.7,472.84c-0.14,1.8-0.76,4.09-2.63,5.01c-3.76-2.2-2.14-3.8-2.23-4.05
								c-0.14-0.37-0.98,0.77-1.62-0.38c-1.23-2.2-0.36-2.21-0.41-2.31c-0.04-0.09-1.51-0.65-1.62-1.16
								c-0.53-2.41,0.84-8.33,2.42-10.6c0.84-0.1,1.66,0.15,2.43,0.38c0.13,1.52-0.87,9.05,1.43,8.48
								C167.41,463.08,167.96,469.59,167.7,472.84z"/>
						</g>
						<path class="st5" d="M193.26,475.9c4.46,1.84,9.31,3.37,14.2,2.49c-5.2-0.84-10.72-2.22-14.61-5.77
							c0.71-1.15,3.49-2.36,3.65-2.51c7.79,0.22,14.34,4.47,22.52,2.68c-0.41-0.58-0.41-0.58-0.81-1.16
							c-5.78,0.78-12.41-2.22-15.62-6.93c1.25-0.75,2.62-2.33,4.26-2.32c1.61,0.01,15.22,6.57,23.94,3.83c0-0.39,0-0.39,0-0.77
							c-5.28,1.33-13.26-0.47-17.65-3.45c3.45-0.49,7.09-1.26,10.55-1.55c3.59-0.31,7.18-0.02,10.75-0.39
							c0.92-0.1,3.27-1.14,3.45-1.16c1.81-0.16,1.62-0.11,1.22,0.96c-11.87,12.41-28.41,21.09-43.99,26.45
							c-4.77-2.6-4.77-2.6-9.54-5.2C189.41,478.51,189.41,478.51,193.26,475.9z"/>
						<path class="st5" d="M237.87,458.51c-2.75,0.26-9.51-0.66-12.17-1.53c4.51-1.5,8.61-4.06,12.98-5.79
							c1.06-0.42,0.84-2.13,6.9-1.55C243.2,453.14,242.79,458.04,237.87,458.51z"/>
						<path class="st0" d="M196.5,470.12c2.23-2.09,3.21-3.67,6.08-5.4c3.22,4.71,9.84,7.7,15.62,6.93
							c0.41,0.58,0.41,0.58,0.81,1.16C210.84,474.59,204.29,470.33,196.5,470.12z"/>
						<path class="st4" d="M201.36,458.55c3.5-2.24,6.95-5.58,9.32-8.88c0.61,0.1,0.61,0.1,1.22,0.19
							c-2.75,8.93-1.34,8.33-10.74,12.93C200.44,460.35,201.36,458.76,201.36,458.55z"/>
						<path class="st0" d="M223.67,460.45c-3.46,0.29-7.1,1.06-10.55,1.55c-1.2-0.82-2.65-1.43-1.42-2.31
							c8.53-3.73,5.7-2.09,13.39-0.01C224.38,460.07,224.38,460.07,223.67,460.45z"/>
						<g>
							<path class="st0" d="M247.19,449.64c-0.81,0-0.81,0-1.62,0c-6.06-0.58-5.84,1.13-6.9,1.55c0.87-2.51-12.05,2.67-16.63,4.06
								c-0.04,0.42,3.07,1.54,3.65,1.73c2.66,0.87,9.42,1.8,12.17,1.53c0,0.19,0,0.19,0,0.39c-0.18,0.02-2.53,1.06-3.45,1.16
								c-3.57,0.38-7.16,0.09-10.75,0.39c0.71-0.39,0.71-0.39,1.42-0.77c-7.69-2.08-4.86-3.72-13.39,0.01
								c-1.23,0.88,0.22,1.49,1.42,2.31c4.39,2.99,12.37,4.78,17.65,3.45c0,0.39,0,0.39,0,0.77c-8.72,2.73-22.33-3.83-23.94-3.83
								c-1.63-0.01-3.01,1.56-4.26,2.32c-2.87,1.73-3.85,3.31-6.08,5.4c-0.16,0.15-2.94,1.36-3.65,2.51
								c3.89,3.55,9.41,4.93,14.61,5.77c-4.9,0.87-9.74-0.66-14.2-2.49c-0.14-0.06-1.81-1.92-2.23-1.93
								c-1.1-0.02-17.27,9.99-12.56,14.66c7.3-6.46,3.17-0.56,3.04,0.96c-0.47,5.52,9.67-7.43,6.69-0.2
								c2.47-1.32,5.92-1.7,7.91-2.32c0.2,0.58,0.2,0.58,0.41,1.16c-0.38,0.17-0.95,2.01-7.1,3.86c7.12,5.24-5.66,3.1-3.24,7.71
								c10.31,0.79,5.84-2.52,12.97-8.49c3.74-3.13,8.56-4.6,12.77-6.95c1.56-0.17,2.86-0.38,4.46-0.39
								c1.83,1.29-0.33,0.35-2.64,1.16c-9.99,3.51-7.29,10.14-11.35,5.41c-1.23,0.86-7.64,8.17-6.48,8.87
								c12.16,1.04,6.17-7.53,19.67-11.39c-1.81,0.57-9.68,9.53-8.92,10.42c11.38,0.35,7.71-4.79,15.4-14.09
								c1.54,0.15,1.89,0.36,2.03,0.38c0.26,11.18-17.67,13.09,3.05,10.02c0.96-3.07,2.96-5.89,3.44-8.87
								c1.53,0.35,3.7,1.05,5.28,1.54c-12.05,11.48,8.85,5.64,6.09,2.31c0.18,0.08,0.92-0.09,3.65,1.54
								c-3.49,9.4-21.54,1.73-6.28,8.49c0.51,0.77,0.51,0.77,1.02,1.54c-1.11,0.63-2.14,1-3.24,1.55c-7.15-4-8.62-7.23-16.43-4.61
								c-2.25,1.29,9.23,4.92,11.57,6.93c-3.85,1.63-10.72,4.37-14.6,5.03c1.49-2.31-2.91-2-6.7-4.24
								c-5.63-3.33-3.68-6.53-14.81-3.65c-0.12,0.34,3.67,3.99,4.26,4.43c0.69,0.51,6.13,3.38,6.49,3.46
								c1.32,0.31,8.88,0.21,10.34-0.01c-5.71,2.09-12.51,0.72-18.26-0.76c0.81-0.29,0.81-0.29,1.62-0.58
								c-4.53-2.23-6.34-6.88-7.11-7.13c-1.09-0.36-3.25,0.6-5.48,0.39c-5.24-0.49-2.69-0.73-5.28-4.04
								c3.14-1.64,3.14-1.64,6.29-3.28c1.69-1.5-6.99-3.46-7.3,2.71c-3.39-3.92-5.73-0.74-6.09-0.77c-0.9-0.08-0.82-2.32-2.23-0.77
								c-1.61,1.78-4.29,4.75-5.67,6.56c-0.81-0.19-0.81-0.19-1.62-0.38c2.58-3.23,7.45-12.43,4.25-15.81
								c-1.85-1.96-17.47-5-9.96-26.4c0.61-0.29,0.61-0.29,1.22-0.58c-1.58,2.28-2.95,8.19-2.42,10.6c0.11,0.5,1.58,1.07,1.62,1.16
								c0.05,0.11-0.82,0.11,0.41,2.31c0.64,1.15,1.49,0.02,1.62,0.38c0.09,0.24-1.53,1.84,2.23,4.05c1.87-0.92,2.49-3.21,2.63-5.01
								c7.35-11.49,0.33,7.82,3.46,8.48c2.66-2.12,2.27-5.92,4.66-4.63c0.21,2.29-1.93,4.57,2.03,1.35
								c-8.32-19.94,7.87-33.7,26.74-38.77c1.46,1.11-2.01,7.77-2.83,12.15c-0.45,2.39-0.38,4.71-0.4,7.13c0,0.21-0.92,1.8-0.2,4.24
								c9.4-4.6,7.99-4,10.74-12.93c-0.61-0.1-0.61-0.1-1.22-0.19c2.68-3.71,3.18-7.8,6.48-10.22c0.38,0.65-3.09,10.46-4.04,14.46
								c-0.42,1.76-1.46,3.16-0.2,3.08c9.52-4.01,9.39-5.14,13.98-13.89c1.72-1.93,1.72-1.93,3.44-3.86
								c1.43,1.24-7.01,11.66-4.45,11.96c7.04-3.23,10.05-3.29,13.38-10.81c0.21,2.51,0.21,2.51,0.41,5.01
								c3.47-2.14,9.27-3.84,7.5-5.4c0.19,0.04,2.22-1.17,2.84,1.73C249.22,444.4,248.34,447.09,247.19,449.64z"/>
							<g>
								<g>
									<path class="st4" d="M216.39,483.98c2-0.01,3.72,0.19,5.68,0.38c-7.69,9.29-4.02,14.43-15.4,14.09
										c-0.77-0.88,7.11-9.85,8.92-10.42c-13.5,3.86-7.51,12.43-19.67,11.39c-1.16-0.7,5.25-8.01,6.48-8.87
										c4.07,4.73,1.37-1.9,11.35-5.41C216.06,484.33,218.22,485.27,216.39,483.98z"/>
									<path class="st4" d="M196.52,488.24c0.2-0.09,0.74,0.67,1.42,0.38c6.19-2.6,6.74-3.48,13.99-4.25
										c-4.21,2.35-9.03,3.82-12.77,6.95c-7.14,5.97-2.66,9.28-12.97,8.49c-2.42-4.61,10.36-2.47,3.24-7.71
										C195.57,490.25,196.13,488.41,196.52,488.24z"/>
									<path class="st4" d="M227.77,505.75c-4.92,5.94-21.28-4.5-20.29-5.77c1.61,0.33,7.9-1.4,8.32-1.36
										C216.5,498.71,225.91,505.07,227.77,505.75z"/>
								</g>
								<g>
									<path class="st5" d="M199.73,448.52c-2.03,5.6-4.67,16.84-9.72,18.13c-1.06-4.54-0.74-15.38,1.2-19.47
										c1.38-2.89,10.88-6.8,11.56-6.37C203.17,441.06,200.21,447.19,199.73,448.52z"/>
									<path class="st5" d="M186.75,457.02c-0.27,0-0.7-0.11-0.81,0.19c-0.61,1.65-0.83,12.88-6.07,17.55
										c-4.43-10.08-0.65-20.6,8.29-27C189.72,447.84,187.09,451.58,186.75,457.02z"/>
									<path class="st0" d="M179.87,474.76c5.24-4.67,5.46-15.9,6.07-17.55c0.11-0.3,0.54-0.19,0.81-0.19
										c-0.4,6.49,2.2,14.11,2.04,14.84c-0.13,0.6-6.16,4.49-7.09,5.6C178.8,476.09,179.94,474.92,179.87,474.76z"/>
									<path class="st0" d="M190.01,466.65c5.05-1.29,7.69-12.53,9.72-18.13c-0.75,3.1-0.55,15.24-0.8,16
										c-0.24,0.74-6.46,4.63-7.5,5.98C190.65,470.44,190.17,467.33,190.01,466.65z"/>
									<path class="st4" d="M213.12,453.91c6.89-5.4,6.89-5.4,13.78-10.81c-4.59,8.75-4.47,9.88-13.98,13.89
										C211.66,457.07,212.7,455.67,213.12,453.91z"/>
									<path class="st4" d="M238.68,451.19c-4.36,1.74-8.47,4.3-12.98,5.79c-0.58-0.19-3.69-1.31-3.65-1.73
										C226.63,453.86,239.55,448.67,238.68,451.19z"/>
									<path class="st5" d="M247.59,443.28c-0.21,6.34-2.64,3.87-7.7,4.63C240.75,446.97,247.05,442.48,247.59,443.28z"/>
								</g>
							</g>
						</g>
					</g>
					<g>
						<path class="st0" d="M429.34,444.85c-0.23,0.64-0.56,1.26-0.81,1.93c-6.43-2.66-10.5,2.95-5.68,3.28
							c-0.2,0.39-0.2,0.39-0.4,0.77c-4.61-0.06-12.47,8.78-4.66,5.98c0.1,0.48,0.1,0.48,0.2,0.96c-7.69,1.19-9.15,4.29-14.6,8.88
							c5.53,2.19,12.55-2.6,17.85-3.68c-0.9,1.66-1.36,2.6-2.43,4.24c-2.86-0.96-8.81,2.68-12.37,3.1c-5.19,0.6-6.16-0.8-6.49-0.77
							c-0.44,0.05-7.8,6.11-4.86,5.4c6.49,0.38,6.49,0.38,12.98,0.76c-1.23,4.71-15.73,0.67-16.63,0.79c-0.7,0.09-4.63,1.82,0,4.63
							c4.74,2.87,8.58,0.63,8.32,2.31c-9.16,3.38-9.42,2.49-14.6,0.78c10.17,2.81,1.82-3.28,0.61-3.08c-0.96,0.16-0.98,3-3.85,0.39
							c-0.02-0.02-0.45,0.08-0.41-0.39c0.8,0.11,1.38-0.43,2.03-0.77c4.25-2.28,1.16-2.52,0.8-8.87c-0.28-5.06,0.8-10.83,3.84-14.65
							c0.51,0.77,0.51,0.77,1.02,1.54c-3.56,6.18-2.79,17.57-1,17.74c9.48-6.51,4.91-8.94,5.06-16.2c0.14-6.81,4.36-8.99,4.05-12.34
							c2.01-1.51,3.89-2.96,6.08-4.25c0.85,0.95-2.14,2.19-2.84,3.28c-3.51,5.5-4.83,16.53-3.43,22.94
							c1.08-1.28,6.05-5.42,6.28-5.98c0.69-1.7,1.72-17.23,1.6-21.01c1.12-0.61,2.13-1,3.24-1.55c-2.46,3.55-0.4,12.19-2.01,19.47
							c11.38-6.59,5.2-9.96,5.66-20.44c-0.61-0.1-0.61-0.1-1.22-0.19c4.24-1.93,8.56-3.51,12.98-5.02c2.26,0.93-4.46,2.38-8.52,4.44
							c1.53,20.72,4.54,2.67,10.55-3.09c1.53-1.47,5.09-3.06,5.27-1.55C425.68,442.98,421.35,445.15,429.34,444.85z"/>
						<path class="st4" d="M399.76,483.43c0.26-1.68-3.58,0.56-8.32-2.31c-4.63-2.8-0.71-4.54,0-4.63c0.9-0.11,15.4,3.93,16.63-0.79
							c-6.49-0.38-6.49-0.38-12.98-0.76c-2.94,0.71,4.42-5.35,4.86-5.4c0.33-0.04,1.31,1.37,6.49,0.77
							c3.56-0.41,9.51-4.06,12.37-3.1C414.1,474.5,408.39,480.24,399.76,483.43z"/>
						<path class="st4" d="M421.25,462.98c-5.3,1.08-12.32,5.87-17.85,3.68c5.45-4.59,6.91-7.69,14.6-8.88
							c-0.1-0.48-0.1-0.48-0.2-0.96c-7.81,2.8,0.05-6.04,4.66-5.98c0.2-0.39,0.2-0.39,0.4-0.77c-4.83-0.33-0.75-5.94,5.68-3.28
							C426.49,452.31,424.07,457.76,421.25,462.98z"/>
						<path class="st4" d="M403.38,443.33c0.51-0.3,1.1-0.49,1.62-0.77c0.12,3.79-0.91,19.31-1.6,21.01
							c-0.23,0.56-5.2,4.7-6.28,5.98c-1.4-6.42-0.08-17.44,3.43-22.94C401.24,445.52,404.23,444.28,403.38,443.33z"/>
						<path class="st4" d="M429.34,444.85c-7.99,0.3-3.67-1.87,1.61-10.22c-0.18-1.51-3.74,0.08-5.27,1.55
							c-6.01,5.77-9.01,23.81-10.55,3.09c4.05-2.06,10.78-3.51,8.52-4.44C433.32,431.52,435.14,428.46,429.34,444.85z"/>
						<path class="st0" d="M393.25,459.92c-3.05-1.08-1.46-6.05-4.06-1.54c-0.51-0.77-0.51-0.77-1.02-1.54
							c-3.04,3.83-4.12,9.59-3.84,14.65c-1.83-0.86-1.66,6.05-0.8,8.87c-0.65,0.35-1.22,0.88-2.03,0.77
							c-5.6-12.84,5.58-25.88,15.79-33.56C397.61,450.93,393.39,453.11,393.25,459.92z"/>
						<path class="st4" d="M408.24,441.01c0.84-0.41,1.58-0.77,2.43-1.16c0.61,0.1,0.61,0.1,1.22,0.19
							c-0.46,10.48,5.72,13.85-5.66,20.44C407.84,453.2,405.78,444.56,408.24,441.01z"/>
						<path class="st4" d="M389.19,458.38c2.6-4.51,1.01,0.46,4.06,1.54c-0.15,7.26,4.42,9.69-5.06,16.2
							C386.4,475.95,385.63,464.56,389.19,458.38z"/>
						<path class="st4" d="M383.53,480.36c-0.85-2.82-1.02-9.73,0.8-8.87C384.69,477.85,387.78,478.08,383.53,480.36z"/>
					</g>
					<g>
						<path class="st6" d="M337.34,545.95c-2.35-0.67-9.02-5.2-9.54-5.39c-10.45-3.79,5.53,4.37,6.5,5.01
							c0.68,0.44,1.69,0.99,1.42,1.93c-0.06,0.11-0.39,0.73-0.4,0.77c-1.84-0.71-24.91-7.84-25.16-6.34
							c8.2,2.74,16.9,3.88,24.75,7.5c0.74,0.22,0.64,2.05,0.81,2.31c-10.85,1.62-21.59,3.21-28.81-6.14
							c0.48-1.63,1.27-4.39,2.02-5.79c6.07-11.26,23.02-1.6,28.81,5.76C337.72,545.58,337.67,545.69,337.34,545.95z"/>
						<g>
							<path class="st14" d="M346.27,548.64c-0.03,0.18-1.12,2.95-1.21,3.09c-3.13,4.52-8.07,1.9-9.33,0.01
								c-0.18-0.27-0.07-2.09-0.81-2.31c0.37-0.42,0.29-0.83,0.4-1.16c0.01-0.04,0.34-0.66,0.4-0.77c0.06-0.1,1.46-1.42,1.62-1.54
								c0.33-0.26,0.38-0.37,0.41-0.39C342.21,542.69,346.99,543.86,346.27,548.64z"/>
							<path class="st15" d="M345.05,551.72c0.1-0.14,1.19-2.9,1.21-3.09C350.27,549.53,348.32,552.93,345.05,551.72z"/>
						</g>
						<path class="st7" d="M334.91,549.42c-7.86-3.61-16.56-4.75-24.75-7.5c0.25-1.5,23.32,5.63,25.16,6.34
							C335.2,548.59,335.28,549,334.91,549.42z"/>
						<path class="st7" d="M335.72,547.49c0.27-0.94-0.74-1.48-1.42-1.93c-0.96-0.63-16.95-8.79-6.5-5.01
							c0.52,0.19,7.19,4.72,9.54,5.39C337.18,546.07,335.78,547.4,335.72,547.49z"/>
					</g>
					<g>
						<path class="st16" d="M454.17,531.96c10.57-4.12,6.96,2.25,9.13,3.46c4.43,2.48,5.94-4.07,7.5-5.79
							c8.3,3.12,11.04,12.3,17.46,16.56c-3.02,5.39-12.99,6.69-18.66-0.56c-6.38-13.34,0.09,1.29-9.53,6.76
							C445.07,560.91,438.33,538.15,454.17,531.96z"/>
						<path class="st16" d="M453.35,530.42c-7.46,8.22-24.97,5.05-23.13-6.34c0.49-3.06,5.66-6.96,8.72-7.53
							c5.68-1.05,8.49,2.07,5.48-1.55c2.8,1.47,3.63,2.13,6.9,3.08C457.05,521.28,457.63,525.71,453.35,530.42z"/>
						<path class="st8" d="M451.31,518.09c-3.27-0.95-4.1-1.61-6.9-3.08c-2.27-2.73-3.83-5.6-6.5-7.71
							c-0.72-12.15,13.45-13.61,19.47-5.61c0.92,1.22,1.4,3.49,2.03,4.82c0.9,1.9,1.67,3.84,2.44,5.78c0.3,0.74,0.33,1.62,0.81,2.31
							c-2.43,2.13-3.56,0.7-4.06,1.35C457.95,516.83,464.14,521.79,451.31,518.09z"/>
						<path class="st6" d="M476.88,527.7c-0.27-0.17-0.5-2.37-4.87-3.66c6.71-3.25,0.15-4.64,0-5.01c-0.5-1.19,2.24-3.34,2.84-4.82
							c1.28,0.61,4.85-2.52,7.91-3.09c14.09-2.63,19.19,10.96,9.35,16.18C488.72,529.09,480.04,529.69,476.88,527.7z"/>
						<path class="st16" d="M488.26,546.2c-6.42-4.26-9.16-13.44-17.46-16.56c1.55-1.7,3.13-2.11,5.27-1.55
							C483.45,530.03,492.54,538.56,488.26,546.2z"/>
						<g>
							<path class="st16" d="M475.25,513.44c-9.66,9.11-9.86-0.64-11.16-0.76c-0.69,0.55-0.73,1.33-1.42,1.93
								c-0.48-0.7-0.52-1.57-0.81-2.31c-0.11-5.95-0.19-11.74,4.04-16.58C475.64,490.36,486.87,502.48,475.25,513.44z"/>
							<path class="st9" d="M461.86,512.29c-0.77-1.94-1.54-3.88-2.44-5.78c0.99-4.31,2.17-8.43,6.48-10.8
								C461.67,500.55,461.75,506.35,461.86,512.29z"/>
						</g>
						<g>
							<path class="st0" d="M476.07,528.09c-2.14-0.56-3.73-0.15-5.27,1.55c-1.56,1.72-3.07,8.27-7.5,5.79
								c-2.17-1.21,1.44-7.59-9.13-3.46c-0.41-0.77-0.41-0.77-0.81-1.54c4.28-4.71,3.69-9.15-2.04-12.34
								c12.82,3.71,6.64-1.26,7.3-2.13c0.49-0.65,1.62,0.78,4.06-1.35c0.68-0.6,0.73-1.38,1.42-1.93c1.3,0.12,1.5,9.87,11.16,0.76
								c-0.04,0.31-0.28,0.45-0.4,0.77c-0.6,1.49-3.33,3.63-2.84,4.82c0.15,0.37,6.71,1.76,0,5.01c4.37,1.29,4.6,3.49,4.87,3.66
								C476.48,527.9,476.48,527.9,476.07,528.09z"/>
							<g>
								<path class="st17" d="M467.14,526.56c-0.67-0.19-0.85,0.41-1.22,0.39c-0.93-0.06-2.82-2.13-2.84-2.31
									c-0.01-0.1,0.48-1.17,0.81-1.16c0.69,0.27,0.39-0.01,0.41,0c1.27,0.3,4.47,0.44,4.06-1.55c1.6-1.68,4.1-1.9,3.65,0.96
									c-4.66,3.01-0.23,0.47,0,4.24c-0.62,1.31-4.96,0.89-3.86-2.89C466.9,525.43,466.71,525.5,467.14,526.56z"/>
								<path class="st18" d="M461.46,524.63c-5.28-0.09-4.92-5.59,0.81-2.7C461.87,523.28,461.87,523.28,461.46,524.63z"/>
								<path class="st19" d="M465.93,526.94c0.36,0.02,0.54-0.57,1.22-0.39c0.2,0.49,4.22,2.87,0.21,4.63
									C465.3,530.3,465.01,528.92,465.93,526.94z"/>
								<path class="st18" d="M464.3,527.52c-1.68,3.67-6.6,2.01-3.45-1.35C462.58,526.85,462.58,526.85,464.3,527.52z"/>
								<path class="st19" d="M467.55,521.93c-0.27,0.01-0.55-0.04-0.81,0c0.24-1.44-0.8-1.46-0.81-1.54
									C465.38,516.94,471.88,516.57,467.55,521.93z"/>
								<path class="st18" d="M463.49,521.93c-2.67-3.53,0.29-4.71,2.03-1.54C464.35,521.12,463.18,520.22,463.49,521.93z"/>
								<path class="st17" d="M466.73,521.93c-0.98,0.14-2.64,0.06-2.43,0.77c-0.03-0.05-0.33-0.13-0.81-0.77
									c-0.31-1.71,0.86-0.81,2.03-1.54c0.2,0,0.2,0,0.41,0C465.93,520.47,466.98,520.49,466.73,521.93z"/>
								<path class="st20" d="M464.3,523.47c-0.03-0.31,0.05-0.69,0-0.77c-0.2-0.71,1.45-0.63,2.43-0.77c0.26-0.04,0.54,0.01,0.81,0
									c0.27-0.01,0.54,0,0.81,0C468.77,523.92,465.57,523.77,464.3,523.47z"/>
								<path class="st21" d="M463.08,524.63c-0.54-0.01-1.08,0.01-1.62,0c0.4-1.35,0.4-1.35,0.81-2.7c1.18,0.59,1.52,1.5,1.62,1.54
									C463.57,523.46,463.07,524.53,463.08,524.63z"/>
							</g>
						</g>
					</g>
					<g>
						<path class="st6" d="M389.26,540.12c-0.21,0.14-0.58-0.4-0.61-0.39c-1.41,0.89-1.75,1.61-3.85,2.32
							c-2.13-4.22-4.65-10.5-8.94-13.1C384.03,508.56,409.46,526.35,389.26,540.12z"/>
						<g>
							<path class="st6" d="M397,568.26c-0.02,0.53-0.32,4.04-0.4,4.24c-3.45,8.89-20.18,2.93-19.89-10.78
								c1.5-4.26,0.93-7.4,2.42-10.8c2,8.38,1.36,15.68,10.97,21.77c-4.95-4.68-6.88-10.55-8.53-16.76
								c3.84,2.83,9.53,7.16,14.61,6.93c0.04,0.31,0.28,0.45,0.41,0.77C397.17,565.07,397.04,566.75,397,568.26z"/>
							<path class="st0" d="M400.23,560.16c-5.72-3.47-13.1-3.02-18.47-7.31c-3.2-0.22-0.34,2.57-0.2,3.08
								c1.66,6.21,3.59,12.08,8.53,16.76c-9.62-6.09-8.97-13.39-10.97-21.77c-0.12-0.51,0.29-1.24-0.81-1.54
								c0.06-0.02,0.36-1,1.01-0.77c0.23,0.08,0.18,0.88,0.81,1.16c3.46,1.51,15.16,6.98,17.65,7.31
								C399.02,558.62,399.02,558.62,400.23,560.16z"/>
						</g>
						<g>
							<path class="st9" d="M396.59,572.5c0.08-0.2,0.39-3.71,0.4-4.24c7.49,1.24,4.97,8.39,6.9,5.78
								C402.31,578,398.29,574.75,396.59,572.5z"/>
							<path class="st9" d="M403.9,574.03c-1.94,2.61,0.58-4.54-6.9-5.78c0.05-1.5,0.17-3.19-0.41-4.63
								C401.86,564.49,404.31,569.35,403.9,574.03z"/>
						</g>
						<g>
							<path class="st16" d="M411.99,551.66c0.72-1.05-8.05-2.16-9.94-2.3c-6.93-0.52-23.09,0.15-4.87,0.78
								c6.59,1.73,6.59,1.73,13.19,3.46c-3.12,2.91-7.91,4.1-12.57,3.48c-2.5-0.33-14.2-5.8-17.65-7.31
								c-0.63-0.27-0.58-1.08-0.81-1.16c-0.66-0.22-0.95,0.75-1.01,0.77c-0.04,0.02,0.16,0.05-0.81,0.39
								c-9.08-0.17-13.95,1.42-20.69-5.38c-0.71-0.94-0.99-1.25-1.62-2.31c-0.41-1.45-0.41-1.45-0.81-2.89
								c20.52,9.91,20.04,8.19,1.62-3.47c0.41-0.1,0.41-0.1,0.81-0.19c11.89-1.92,6.1-4.69,8.51-6.75c8.51-1.43,1.89,3.48,1.63,3.85
								c-0.18,0.25,0.27,1.41-0.2,2.12c-0.14,0.22-3.86,0.36-1.01,3.47c1.15,1.25,1.48,0.66,1.62,0.77
								c0.41,0.39,0.41,0.39,0.81,0.77c0.19,0.26-0.7,1.16,1.22,2.31c1.26,0.76,1.67-0.14,2.84,0.38c3.08,1.37,3.82,2.64,7.71,3.08
								c7.32,0.81,20.94-1.28,32.86,1.51C418.25,550.73,412.77,551.11,411.99,551.66z"/>
							<path class="st16" d="M379.13,550.92c-1.5,3.4-0.93,6.53-2.42,10.8c-5.4,15.36-25.88,13.14-23.53-0.17
								c0.62-3.52,6.69-8.2,10.13-9.07c0.71-0.18,4.42,0.74,14.2-2.71c0.97-0.34,0.77-0.37,0.81-0.39
								C379.42,549.68,379.01,550.41,379.13,550.92z"/>
							<path class="st4" d="M380.75,542.05c-0.1-1.32-2.18-4.61-3.65-3.47c1.96-2.83,2.56-5.29-0.21-4.24
								c-5.23,3.64-2.69,4.44-3.04,5.21c-0.3,0.67-1.56,1.03-1.62,1.16c-0.02,0.05,0.64,0.37,0.41,0.96
								c-0.03,0.07-1.26-0.33-0.4,0.77c-1.17-0.52-1.58,0.37-2.84-0.38c4.68-1.46,3.65-5.6,2.02-9.06
								c-5.43-3.06-3.57,1.99-3.65,2.32c-0.19,0.84-3.17-0.68-2.03,2.89c-2.85-3.11,0.87-3.26,1.01-3.47
								c0.47-0.71,0.02-1.87,0.2-2.12c0.26-0.38,6.89-5.29-1.63-3.85c-2.42,2.06,3.37,4.83-8.51,6.75c2.98-2.72,1.14-4.71,6.08-4.44
								c-1.43-0.27-1.3-0.31-1.22-1.73c3.42-1.13,6.84-2.42,10.55-1.94c-4.7,8.14,6.8,8.4,2.44,1.15c0.08,0.03,0.5-0.05,1.22,0.38
								c4.28,2.6,6.8,8.88,8.94,13.1C383.23,542.58,382.54,543.05,380.75,542.05z"/>
							<path class="st5" d="M396.18,562.86c-5.08,0.23-10.77-4.09-14.61-6.93c-0.14-0.52-3-3.31,0.2-3.08
								c5.37,4.28,12.74,3.84,18.47,7.31C401.92,561.67,396.99,562.82,396.18,562.86z"/>
							<path class="st0" d="M355.19,542.08c-1.03-1.74-1.86-4.93-3.66-7.52c2.91-2.46,6.48-4,10.14-5.21
								c-0.08,1.42-0.21,1.47,1.22,1.73c-4.94-0.27-3.1,1.72-6.08,4.44c-0.41,0.1-0.41,0.1-0.81,0.19
								c18.42,11.66,18.9,13.38-1.62,3.47C354.78,540.63,354.78,540.63,355.19,542.08z"/>
							<g>
								<path class="st8" d="M410.36,545.88c-7-2.57-17.16-1.83-24.55-1.52c-1.79-1.06,2.65-3.51,3.44-3.86
									C403.38,534.23,429.61,538.2,410.36,545.88z"/>
								<path class="st0" d="M379.94,545.52c0.12-0.95,0.85-2.93,0.81-3.47c1.79,1,2.49,0.53,4.06,0c2.1-0.71,2.44-1.43,3.85-2.32
									c0.03-0.02,0.4,0.53,0.61,0.39c0,0.19,0,0.19,0,0.39c-0.79,0.35-5.24,2.8-3.44,3.86c7.38-0.31,17.55-1.05,24.55,1.52
									c0.19,0.07,2.32,1.08,2.44,1.15C400.88,544.25,387.26,546.34,379.94,545.52z"/>
							</g>
							<path class="st4" d="M411.99,551.66c-1.81,1.31-0.85,1.21-1.62,1.93c-6.59-1.73-6.59-1.73-13.19-3.46
								c-18.22-0.63-2.07-1.3,4.87-0.78C403.95,549.5,412.71,550.61,411.99,551.66z"/>
							<path class="st4" d="M363.31,552.48c0.76-4.45-1.92-2.07-6.5-8.09c6.74,6.8,11.62,5.21,20.69,5.38
								C367.73,553.22,364.02,552.3,363.31,552.48z"/>
							<path class="st16" d="M372.21,527.41c2.38,0.31,2.31,1.1,2.44,1.15C379.02,535.81,367.51,535.55,372.21,527.41z"/>
							<path class="st0" d="M380.75,542.05c0.04,0.54-0.69,2.52-0.81,3.47c-3.9-0.43-4.63-1.71-7.71-3.08
								c-0.86-1.1,0.38-0.7,0.4-0.77c2.86-0.48,3.1-1.13,4.46-3.09C378.57,537.44,380.64,540.74,380.75,542.05z"/>
							<path class="st5" d="M377.09,538.59c-1.36,1.96-1.6,2.61-4.46,3.09c0.23-0.6-0.43-0.92-0.41-0.96
								c0.07-0.12,1.32-0.49,1.62-1.16c0.35-0.77-2.19-1.57,3.04-5.21C379.66,533.29,379.05,535.76,377.09,538.59z"/>
							<g>
								<path class="st22" d="M369.39,542.06c-1.92-1.15-1.02-2.06-1.22-2.31c-0.61-0.8-0.21-0.32-0.81-0.77
									c-0.15-0.11-0.48,0.48-1.62-0.77c-1.14-3.57,1.84-2.06,2.03-2.89c0.07-0.33-1.78-5.38,3.65-2.32
									C373.04,536.46,374.06,540.6,369.39,542.06z"/>
								<path class="st20" d="M368.17,539.75c-0.41-0.39-0.41-0.39-0.81-0.77C367.96,539.43,367.56,538.95,368.17,539.75z"/>
								<path class="st0" d="M368.57,535.9c0.61,0,0.61,0,1.22,0c0.06,0.17,1.97,0.68-0.2,3.08
									C367.3,537.95,368.28,537.14,368.57,535.9z"/>
								<path class="st23" d="M369.79,535.89c-0.61,0-0.61,0-1.22,0C369.59,531.5,369.71,535.68,369.79,535.89z"/>
							</g>
						</g>
					</g>
					<g>
						<path class="st16" d="M269.54,482.78c-1.59,0.45-4.33,0.86-6.08,1.16c-10.78,1.88-21.43,0.92-21.11-11.74
							c6.58-10.39,20.57-3.16,26.37-1.37c0.75,0.23,1.2,0.27,1.62,0.38c-0.73,3.73,3.62,5.47,4.06,5.97
							c0.34,0.39-0.88,0.96,0.41,2.12c0.55,0.49,1.35,0.4,2.03,0.38c-3.43,2.84-2.56,0.55-5.48,1.16
							C270.05,481.12,269.67,482.74,269.54,482.78z"/>
						<path class="st6" d="M291.45,489.31c-0.84-0.43-1.36-1.59-2.03-1.93c-1.06-5.34,2.63-6.51,2.83-7.52
							c0.57-2.86-3.07-3.46-3.25-3.66c1.24-1.06,2.8-0.35,5.68-1.16c25.64-2.38,22.57,22.01,3.46,17.73
							C296.48,492.4,293.24,490.23,291.45,489.31z"/>
						<path class="st0" d="M289.42,487.39c-7-3.52-6.82,3-11.56,2.32c-4.4-0.63,0.95-6.74-7.92-6.55c-0.2-0.19-0.2-0.19-0.41-0.39
							c0.13-0.04,0.51-1.66,1.82-1.93c2.92-0.61,2.05,1.68,5.48-1.16c1.01-0.84,0.08-2.52,2.84-0.58c-0.19,1.44-1.6,1.13-2.43,1.74
							c-0.15,0.11-2.91,0.57-1.01,2.7c2.43,0.47,2.85-1.12,3.45-1.16c-1.16,3.08-0.94,5.46,1.63,2.7c1.3,1.31,4.15,1.05,3.24-1.93
							c-0.49-1.63-3.24-3.36-0.41-1.93c4.2,2.12,5.37-0.38,2.03-2.32c-0.34-0.2-1.76,0.45-1.62-0.58c6.22-2.16,2.54-6.47-1.83-1.73
							c2.34-8.48-4.86-4.97-3.04-1.35c0.19,0.38,5.05,1.94,0.61,2.12c-0.64-0.24-3.66-8.23-4.67-2.89c3.85,4.22-1.38,0.84-0.81,4.82
							c-1.29-1.16-0.06-1.73-0.41-2.12c-0.44-0.51-4.79-2.24-4.06-5.97c9.28,2.52,4.13-0.68,7.5-2.32c2.18-1.06,3.5,1.3,4.26-2.7
							c0.2,0,0.2,0,0.41,0c0.02,0.39,1.96,3.19,2.44,7.13c5.4,0.21,3.16,1.87,4.06,2.89c0.18,0.2,3.82,0.8,3.25,3.66
							C292.05,480.88,288.36,482.04,289.42,487.39z"/>
						<g>
							<path class="st16" d="M295.11,505.89c-4.33,6.79-13.65,4.5-17.04-1.91c-1.18-2.23-1.24-4.21-1.83-6.55
								c-1.1,3.69-4.07,6.59-7.9,7.72c-3.85-1.25-7.34-0.35-10.15-3.65c-2.56-5.07,0.05-10.82,4.25-14.46
								c0.63-0.54,5.32-2.21,4.26-3.09c0.92-0.23,2.66-0.76,3.24-0.77c8.86-0.19,3.51,5.92,7.92,6.55
								c4.74,0.68,4.56-5.84,11.56-2.32c0.67,0.34,1.19,1.5,2.03,1.93C294.78,495.21,297.68,499.09,295.11,505.89z"/>
							<path class="st9" d="M262.64,485.87c1.08-0.64,2.91-1.64,4.06-1.93c1.06,0.88-3.63,2.54-4.26,3.09
								c-4.2,3.64-6.8,9.39-4.25,14.46c2.8,3.3,6.29,2.4,10.15,3.65C254.24,509.29,250,493.35,262.64,485.87z"/>
						</g>
						<path class="st9" d="M278.07,503.97c3.39,6.41,12.71,8.7,17.04,1.91C291.37,515.84,280.37,512.69,278.07,503.97z"/>
						<g>
							<path class="st16" d="M294.68,475.04c-2.88,0.81-4.44,0.11-5.68,1.16c-0.9-1.02,1.34-2.68-4.06-2.89
								c-0.49-3.94-2.42-6.74-2.44-7.13c-0.01-0.14,0.25-0.36,0.4-1.16c1.16,1.37,1.89-2.2,4.05-4.44
								c6.15-6.35,9.58-4.85,11.15-5.21c0.3-0.07,0.21-0.51,0.2-0.77C307.26,456.03,309.46,470.9,294.68,475.04z"/>
							<path class="st9" d="M282.91,465.03c1.23-6.29,8.8-11.48,15.41-10.42c0,0.26,0.1,0.7-0.2,0.77
								c-1.58,0.36-5.01-1.14-11.15,5.21C284.8,462.83,284.07,466.39,282.91,465.03z"/>
						</g>
						<path class="st24" d="M266.7,483.94c-1.15,0.29-2.97,1.29-4.06,1.93c0.4-0.96,0.4-0.96,0.81-1.93
							c1.75-0.31,4.5-0.71,6.08-1.16c0.2,0.19,0.2,0.19,0.41,0.39C269.35,483.17,267.61,483.7,266.7,483.94z"/>
						<g>
							<path class="st6" d="M282.1,466.19c-0.76,4-2.08,1.64-4.26,2.7c-3.37,1.64,1.78,4.84-7.5,2.32
								c-0.42-0.11-0.87-0.15-1.62-0.38c-15.8-16.42-0.4-28.67,8.91-19.86C280.9,454.06,282.89,461.98,282.1,466.19z"/>
							<path class="st7" d="M276.42,466.77c-0.61,0-0.61,0-1.22,0C267.25,450.29,269.7,451.47,276.42,466.77z"/>
						</g>
						<g>
							<path class="st25" d="M286.17,478.91c-1.01,1.16-1.01,1.16-2.03,2.32c-2.83-1.43-0.09,0.3,0.41,1.93
								c-1.8,2.6-1.46,1.86-4.06-0.77c-0.05-0.05,0.22-0.27-0.41-0.77c-1.47-1.17-1.33,1.07-2.84-0.77c0.83-0.61,2.24-0.3,2.43-1.74
								c-2.76-1.94-1.83-0.26-2.84,0.58c-0.68,0.02-1.48,0.1-2.03-0.38c-0.57-3.98,4.66-0.6,0.81-4.82
								c1.01-5.34,4.03,2.65,4.67,2.89c4.44-0.18-0.42-1.74-0.61-2.12c-1.82-3.63,5.38-7.13,3.04,1.35
								c4.37-4.73,8.04-0.42,1.83,1.73C284.41,479.36,285.83,478.71,286.17,478.91z"/>
							<path class="st18" d="M280.08,481.61c-0.03,0.31-0.28,0.44-0.41,0.77c-0.59,0.04-1.02,1.63-3.45,1.16
								c-1.9-2.13,0.86-2.59,1.01-2.7C278.75,482.68,278.61,480.44,280.08,481.61z"/>
							<path class="st26" d="M284.14,481.22c1.01-1.16,1.01-1.16,2.03-2.32C289.51,480.84,288.33,483.34,284.14,481.22z"/>
							<path class="st27" d="M281.3,485.08c-0.67-0.67-0.71-2.6-0.81-2.7c2.6,2.63,2.26,3.37,4.06,0.77
								C285.45,486.13,282.6,486.39,281.3,485.08z"/>
							<path class="st28" d="M279.68,482.38c0.26-0.02,0.78-0.03,0.81,0c0.11,0.1,0.15,2.02,0.81,2.7
								C278.73,487.84,278.51,485.46,279.68,482.38z"/>
							<path class="st29" d="M280.49,482.38c-0.03-0.03-0.55-0.02-0.81,0c0.13-0.34,0.37-0.46,0.41-0.77
								C280.71,482.11,280.44,482.33,280.49,482.38z"/>
						</g>
					</g>
				</g>
			</g>
		</g>
	</g>
	<polygon class="st0" points="66.8,430.56 94.76,495.65 95.1,488.76 71.39,430.56 	"/>
	<polyline class="st0" points="71.39,430.63 82.16,430.63 95.1,488.84 	"/>
	<polyline class="st0" points="113.36,432.65 116.34,478.02 150.28,442.38 121.32,508.69 125.51,510.71 154.33,443.92 	"/>
	<path class="st5" d="M64.15,463.91"/>
	<path class="st0" d="M85.7,489.36"/>
	<path class="st0" d="M98.66,486.61"/>
	<path class="st0" d="M101.23,490.16c0.1-0.41-0.86-0.63-1.29-1.6c-0.31-0.7-0.09-1.2-0.36-1.31c-0.3-0.12-0.9,0.37-1.03,0.96
		c-0.13,0.56,0.22,1.03,0.45,1.35c0.14,0.19,0.79,1.09,1.62,0.96C100.66,490.52,101.16,490.44,101.23,490.16z"/>
	<path class="st0" d="M113.1,486.5"/>
</g>
<g id="Layer_3">
	<path class="st9" d="M56.35,388.93"/>
</g>
</svg>
